<svg xmlns="http://www.w3.org/2000/svg" viewBox="0 0 24 24" fill="none" stroke="currentColor" stroke-width="1.2" stroke-linecap="round" stroke-linejoin="round">
  
  <path d="M12 3.3 C 9.5 4.5 8.4 6.5 8.6 9.0"></path>
  <path d="M12 3.3 C 14.5 4.5 15.6 6.5 15.4 9.0"></path>
  <path d="M8.4 8.6 C 8.0 11.0 8.6 13.0 10.0 14.5 C 8.0 14.0 7.4 12.4 7.5 10.5"></path>
  <path d="M15.6 8.6 C 16.0 11.0 15.4 13.0 14.0 14.5 C 16.0 14.0 16.6 12.4 16.5 10.5"></path>
  <path d="M9.2 11.5 C 9.4 14.0 10.4 16.4 12 18.5 C 13.6 16.4 14.6 14.0 14.8 11.5"></path>
  <path d="M10.0 13.6 C 10.6 15.4 11.2 16.8 12 18.0"></path>
  <path d="M14.0 13.6 C 13.4 15.4 12.8 16.8 12 18.0"></path>
  <path d="M12 18.6 V 21"></path>
</svg>