<svg xmlns="http://www.w3.org/2000/svg" viewBox="0 0 24 24" fill="none" stroke="currentColor" stroke-width="1.2" stroke-linecap="round" stroke-linejoin="round">
  
  <path d="M5.5 9 C 6 7.5 7.5 6.5 9 7 C 10 5.5 12 5 13.5 6.5 C 15.5 6 17.5 7 17.5 9.5 C 19 10.5 19 13 17 13.5 C 17.5 15.5 16 17 14 16.5 C 13 18 11 18.5 9.5 17 C 7.5 17.2 6 15.8 6.5 13.8 C 4.8 13 4.5 10.5 5.5 9 Z"></path>
  <path d="M9.5 10 L 8.5 11"></path>
  <path d="M13.5 9.5 L 12.5 10.5"></path>
  <path d="M14.5 13 L 13.2 14"></path>
  <path d="M10.5 13.5 L 9.5 14.5"></path>
</svg>